<svg xmlns="http://www.w3.org/2000/svg" xmlns:xlink="http://www.w3.org/1999/xlink"><symbol id="icon-arrow" viewBox="0 0 10 15">
<path d="M1 1L9 8L1 14.5" stroke="#333333" fill="none"/>
</symbol><symbol id="icon-basket" viewBox="0 0 24 24">
<path d="M5.25468 10.5659C5.13958 9.11201 6.2884 7.86865 7.74689 7.86865H16.2531C17.7116 7.86865 18.8604 9.11201 18.7453 10.566L18.2203 17.1975C18.1174 18.4977 17.0323 19.5002 15.7281 19.5002H8.27189C6.96769 19.5002 5.88261 18.4977 5.77968 17.1975L5.25468 10.5659Z" stroke="currentColor" fill="none"/>
<path d="M7.99999 12.5C7.99999 12.5 7.78329 4 12 4C16.2167 4 16 12.5 16 12.5" stroke="currentColor" fill="none"/>
</symbol><symbol id="icon-clock" viewBox="0 0 20 20">
<circle cx="10" cy="10" r="7" fill="white" stroke="currentColor"/>
<path d="M9.55453 5.5L9.55453 10.7061L13.5 13" stroke="currentColor" fill="none"/>
</symbol><symbol id="icon-close-btn" viewBox="0 0 24 24">
<line x1="5.01046" y1="18.2822" x2="18.6464" y2="4.6462" stroke="#333333"/>
<line y1="-0.5" x2="19.2842" y2="-0.5" transform="matrix(-0.707107 -0.707107 -0.707107 0.707107 19 18.6357)" stroke="#333333"/>
</symbol><symbol id="icon-closes" viewBox="0 0 20 20">
<circle cx="10" cy="10" r="7" stroke="currentColor" fill="none"/>
<path d="M6 8C6.24928 8 8.75787 6.5 8.75787 6.5H10.0043H11.2507C11.2507 6.5 13.7507 8 14 8" stroke="currentColor" fill="none"/>
<path d="M6.01577 7.39283L6.01576 9.17806L7.76075 9.4756L7.76075 13.9386" stroke="currentColor" fill="none"/>
<path d="M13.9842 7.39283L13.9842 9.17806L12.2393 9.4756L12.2478 13.9386" stroke="currentColor" fill="none"/>
<line x1="7.51145" y1="13.4385" x2="12.4971" y2="13.4385" stroke="currentColor" fill="none"/>
<path d="M8.50859 6.5C8.50859 6.5 9.00716 8.28522 10.0043 8.28522C11.0014 8.28522 11.5 6.5 11.5 6.5" stroke="currentColor" fill="none"/>
</symbol><symbol id="icon-full-screen" viewBox="0 0 24 24">
<rect x="4.5" y="6.5" width="13" height="13" rx="1.5" stroke="currentColor" fill="none"/>
<path d="M6.33784 6.63126L6.33784 6.49958C6.33784 5.39501 7.23327 4.49958 8.33784 4.49958L17.5 4.49959C18.6045 4.49959 19.5 5.39502 19.5 6.49959L19.5 15.9382C19.5 16.9853 18.5159 17.7537 17.5 17.4997V17.4997" stroke="currentColor" fill="none"/>
</symbol><symbol id="icon-heart" viewBox="0 0 24 24">
<path d="M11.9 7.0948C10.6998 1.47892 1.40881 5.90389 5.76037 11.6018C10.1119 17.2996 12.4 19.4908 12.4 19.4908" stroke="currentColor" fill="none"/>
<path d="M11.8941 7.0948C13.0944 1.47892 22.7304 5.90389 18.3789 11.6018C14.0273 17.2996 11.7 19.5 11.7 19.5" stroke="currentColor" fill="none"/>
<path d="M11.391 6.70752L12.4043 6.70757L12.3834 7.24079H11.391V6.70752Z" fill="none"/>
</symbol><symbol id="icon-logo" viewBox="0 0 64 17">
<path d="M0.976562 16V0.294922H4.30664V13.25H10.6768V16H0.976562ZM28.5509 8.12598C28.5509 9.33626 28.4005 10.4391 28.0997 11.4346C27.7989 12.4229 27.3406 13.2751 26.7247 13.9912C26.116 14.7074 25.3426 15.2588 24.4044 15.6455C23.4663 16.0251 22.3562 16.2148 21.0743 16.2148C19.7924 16.2148 18.6824 16.0251 17.7443 15.6455C16.8061 15.2588 16.0291 14.7074 15.4132 13.9912C14.8045 13.2751 14.3497 12.4193 14.0489 11.4238C13.7482 10.4284 13.5978 9.32194 13.5978 8.10449C13.5978 6.47884 13.8627 5.06445 14.3927 3.86133C14.9298 2.65104 15.7534 1.71289 16.8634 1.04688C17.9734 0.380859 19.3842 0.0478516 21.0958 0.0478516C22.8002 0.0478516 24.2003 0.380859 25.296 1.04688C26.3989 1.71289 27.2153 2.65104 27.7452 3.86133C28.2823 5.07161 28.5509 6.49316 28.5509 8.12598ZM17.089 8.12598C17.089 9.22168 17.2251 10.167 17.4972 10.9619C17.7765 11.7497 18.2098 12.3584 18.797 12.7881C19.3842 13.2106 20.1433 13.4219 21.0743 13.4219C22.0196 13.4219 22.7859 13.2106 23.3732 12.7881C23.9604 12.3584 24.3865 11.7497 24.6515 10.9619C24.9236 10.167 25.0597 9.22168 25.0597 8.12598C25.0597 6.47884 24.7517 5.18262 24.1359 4.2373C23.52 3.29199 22.5066 2.81934 21.0958 2.81934C20.1577 2.81934 19.3914 3.03418 18.797 3.46387C18.2098 3.88639 17.7765 4.49512 17.4972 5.29004C17.2251 6.0778 17.089 7.02311 17.089 8.12598ZM38.6477 7.18066H44.8782V15.3232C44.0546 15.5954 43.1988 15.8138 42.3108 15.9785C41.4228 16.1361 40.4166 16.2148 39.2922 16.2148C37.731 16.2148 36.4062 15.9069 35.3176 15.291C34.2291 14.6751 33.4019 13.7656 32.8362 12.5625C32.2704 11.3594 31.9875 9.88053 31.9875 8.12598C31.9875 6.47884 32.3026 5.05371 32.9329 3.85059C33.5702 2.64746 34.4976 1.71647 35.7151 1.05762C36.9397 0.398763 38.4329 0.0693359 40.1946 0.0693359C41.0253 0.0693359 41.8453 0.158854 42.6545 0.337891C43.4638 0.516927 44.1978 0.749674 44.8567 1.03613L43.7502 3.7002C43.2704 3.45671 42.7226 3.2526 42.1067 3.08789C41.4908 2.92318 40.8463 2.84082 40.1731 2.84082C39.2063 2.84082 38.3648 3.06283 37.6487 3.50684C36.9397 3.95085 36.3883 4.57389 35.9944 5.37598C35.6077 6.1709 35.4143 7.10905 35.4143 8.19043C35.4143 9.21452 35.5539 10.124 35.8332 10.9189C36.1125 11.7067 36.553 12.3262 37.1545 12.7773C37.7561 13.2214 38.5403 13.4434 39.5071 13.4434C39.9797 13.4434 40.3772 13.4219 40.6995 13.3789C41.0289 13.3288 41.3368 13.2786 41.6233 13.2285V9.95215H38.6477V7.18066ZM63.7621 8.12598C63.7621 9.33626 63.6117 10.4391 63.3109 11.4346C63.0101 12.4229 62.5518 13.2751 61.9359 13.9912C61.3272 14.7074 60.5537 15.2588 59.6156 15.6455C58.6774 16.0251 57.5674 16.2148 56.2855 16.2148C55.0036 16.2148 53.8936 16.0251 52.9554 15.6455C52.0173 15.2588 51.2403 14.7074 50.6244 13.9912C50.0157 13.2751 49.5609 12.4193 49.2601 11.4238C48.9593 10.4284 48.8089 9.32194 48.8089 8.10449C48.8089 6.47884 49.0739 5.06445 49.6039 3.86133C50.141 2.65104 50.9645 1.71289 52.0746 1.04688C53.1846 0.380859 54.5954 0.0478516 56.307 0.0478516C58.0114 0.0478516 59.4115 0.380859 60.5072 1.04688C61.6101 1.71289 62.4265 2.65104 62.9564 3.86133C63.4935 5.07161 63.7621 6.49316 63.7621 8.12598ZM52.3002 8.12598C52.3002 9.22168 52.4362 10.167 52.7084 10.9619C52.9877 11.7497 53.4209 12.3584 54.0082 12.7881C54.5954 13.2106 55.3545 13.4219 56.2855 13.4219C57.2308 13.4219 57.9971 13.2106 58.5843 12.7881C59.1716 12.3584 59.5977 11.7497 59.8627 10.9619C60.1348 10.167 60.2709 9.22168 60.2709 8.12598C60.2709 6.47884 59.9629 5.18262 59.347 4.2373C58.7311 3.29199 57.7178 2.81934 56.307 2.81934C55.3688 2.81934 54.6026 3.03418 54.0082 3.46387C53.4209 3.88639 52.9877 4.49512 52.7084 5.29004C52.4362 6.0778 52.3002 7.02311 52.3002 8.12598Z" fill="black"/>
</symbol><symbol id="icon-menu" viewBox="0 0 25 18">
<path d="M0 1H25M0 9H25M0 17H25" stroke="currentColor" stroke-width="2"/>
</symbol><symbol id="icon-pay" viewBox="0 0 20 20">
<rect x="3.5" y="5.5" width="13" height="9" rx="0.5" stroke="currentColor" fill="none"/>
<rect x="4" y="8" width="12" height="2" fill="currentColor"/>
</symbol><symbol id="icon-profile" viewBox="0 0 24 24">
<circle cx="12.4595" cy="8.18919" r="3.68919" stroke="currentColor" fill="none"/>
<path d="M4.5 19.3379H19.5" stroke="currentColor" fill="none"/>
<path d="M4.5 19.84C4.5 16.4347 8.84699 13.9134 12.2143 14.0023C15.4328 14.0872 19.5 16.4347 19.5 19.84" stroke="currentColor" fill="none"/>
</symbol><symbol id="icon-star-empty" viewBox="0 0 12 12">
<path d="M6 3.565L6.485 4.71L6.72 5.265L7.32 5.315L8.555 5.42L7.615 6.235L7.16 6.63L7.295 7.22L7.575 8.425L6.515 7.785L6 7.465L5.485 7.775L4.425 8.415L4.705 7.21L4.84 6.62L4.385 6.225L3.445 5.41L4.68 5.305L5.28 5.255L5.515 4.7L6 3.565ZM6 1L4.595 4.315L1 4.62L3.73 6.985L2.91 10.5L6 8.635L9.09 10.5L8.27 6.985L11 4.62L7.405 4.315L6 1Z" fill="#333333"/>
</symbol><symbol id="icon-star" viewBox="0 0 12 12">
<path d="M6 8.635L9.09 10.5L8.27 6.985L11 4.62L7.405 4.315L6 1L4.595 4.315L1 4.62L3.73 6.985L2.91 10.5L6 8.635Z" fill="#333333"/>
</symbol></svg>